 <svg  version="1.0" xmlns="http://www.w3.org/2000/svg"  width="400.000000pt" height="126.000000pt" viewBox="0 0 400.000000 126.000000"  preserveAspectRatio="xMidYMid meet">  <g transform="translate(0.000000,126.000000) scale(0.050000,-0.050000)" fill="#f5f0f0" stroke="none"> <path d="M1611 1857 c-169 -88 -528 -222 -761 -286 -110 -29 -211 -58 -225 -62 -19 -6 -25 -113 -25 -448 l0 -441 580 0 580 0 0 140 0 140 -555 2 c-576 2 -590 9 -144 67 138 18 350 53 470 77 l219 45 6 151 6 151 -216 -46 c-238 -50 -734 -128 -809 -126 -26 1 61 32 193 69 238 66 493 158 715 257 l115 51 0 161 c0 89 -7 161 -15 160 -8 0 -68 -28 -134 -62z"/> <path d="M2470 1727 c-284 -71 -398 -224 -399 -537 -2 -423 179 -570 702 -570 l267 0 0 138 0 138 -265 7 c-346 9 -362 22 -152 121 446 209 467 236 352 459 -98 188 -313 293 -505 244z m209 -318 c59 -58 66 -51 -140 -146 l-169 -78 -6 63 c-18 195 178 296 315 161z"/> <path d="M5098 1710 c-398 -128 -435 -883 -52 -1061 380 -177 721 69 722 521 0 423 -295 661 -670 540z m283 -291 c81 -43 130 -215 100 -346 -52 -223 -308 -255 -390 -49 -102 254 84 506 290 395z"/> <path d="M6790 1721 c-248 -60 -360 -228 -360 -541 0 -425 167 -560 691 -560 l279 0 0 138 0 138 -269 7 c-326 8 -362 28 -187 104 309 133 459 237 446 308 -55 303 -311 477 -600 406z m234 -294 c60 -55 43 -74 -135 -163 -183 -91 -209 -86 -180 31 41 167 201 234 315 132z"/> <path d="M3100 1172 l0 -552 150 0 150 0 0 410 0 410 111 0 c198 0 209 -24 209 -459 l0 -361 152 0 153 0 -9 415 c-14 639 -41 671 -581 682 l-335 6 0 -551z"/> <path d="M4440 1701 c-223 -68 -341 -228 -356 -486 -22 -368 154 -571 511 -591 l165 -9 0 152 0 153 -105 0 c-180 0 -275 87 -275 252 0 154 102 248 269 248 l91 0 0 150 0 150 -125 -2 c-69 -1 -148 -8 -175 -17z"/> <path d="M6073 1691 c-207 -74 -233 -148 -233 -660 l0 -411 151 0 150 0 -2 375 c-2 431 3 445 173 445 l88 0 0 140 0 140 -125 -1 c-69 0 -160 -13 -202 -28z"/> </g> </svg> 