<?xml version="1.0" encoding="UTF-8"?>
<svg id="a" data-name="Layer_1" xmlns="http://www.w3.org/2000/svg" viewBox="0 0 2400 600">
  <defs>
    <style>
      .b {
        fill-rule: evenodd;
      }

      .b, .c {
        fill: #fff;
      }
    </style>
  </defs>
  <g>
    <path class="b" d="M1616.9565,449.9986V149.9999h42.6681v114.3737h2.1501c17.5675-24.8164,36.9305-33.0874,62.0277-33.0874,51.2592,0,85.3363,33.8089,85.3363,89.9099v128.8026h-42.6771v-128.799c.0718-6.7722-1.2055-13.4886-3.7604-19.757-2.5548-6.2684-6.3332-11.9629-11.1011-16.7524-4.7859-4.7877-10.4535-8.575-16.7147-11.1371-6.2432-2.5621-12.9363-3.8485-19.6851-3.7855-31.9089,0-55.5721,23.7369-55.5721,51.4321v128.799h-42.6717Z"/>
    <path class="b" d="M1980.7468,405.0066v-130.9209h-37.6395v-38.485h37.6395v-46.6462l42.6771-24.7589v71.4051h63.0982v38.485h-63.0982v124.4474c0,8.6308,4.3001,12.9471,12.9004,12.9471h50.1979l-22.5441,38.5185h-36.254c-30.4784,0-46.9772-17.2986-46.9772-44.992Z"/>
    <path class="b" d="M1541.7425,341.8708c0-44.6005-27.6052-73.0136-62.0222-73.0136-34.0608,0-61.6659,28.4131-61.6659,73.0136s27.6051,72.6591,61.6659,72.6591c34.4169,0,62.0222-28.0586,62.0222-72.6591ZM1375.388,531.0644V235.5817h38.3626l4.3038,32.196h2.1501c7.1716-15.466,24.7391-37.4055,65.9678-37.4055,55.9372,0,98.2348,42.8049,98.2348,111.4986s-42.3047,111.4967-98.2348,111.4967c-40.8725,0-59.5159-21.5796-65.9678-37.4055h-2.1501v115.1006l-42.6663.0018Z"/>
    <path class="b" d="M1834.5253,274.1583h37.6395v175.8404h42.6591v-214.3979h-80.2985v38.5576Z"/>
    <path class="c" d="M1914.8239,149.9999h-46.9592v44.9585h46.9592v-44.9585Z"/>
    <path class="b" d="M1014.9298,449.9986v-214.3979h36.2108l4.3038,26.6246h2.1501c10.3976-21.2216,20.7952-26.6246,51.2683-26.6246h22.803v38.5576h-29.2569c-31.549,0-44.8145,12.1566-44.8145,40.9295v134.9109h-42.6646Z"/>
    <path class="b" d="M2147.1912,324.6056h125.8363c-4.6599-34.1669-27.6178-57.9074-62.0366-57.9074-36.2,0-57.3587,23.7405-63.7997,57.9074ZM2267.738,388.4881l34.7065,20.0989c-18.3338,24.1669-48.5425,44.7804-91.4355,44.7804-61.6768,0-106.4771-44.9585-106.4771-111.4967s44.8003-111.4986,106.4771-111.4986c57.7184,0,102.5367,44.9585,102.5367,105.025-.0898,5.1709-.4498,10.3329-1.0795,15.4642l-1.0795,6.1137h-164.1955c4.6599,36.3295,29.7409,59.7084,63.7997,59.7084,25.8185,0,44.9981-10.7826,56.747-28.1953"/>
    <path class="b" d="M1282.1028,357.794v-8.6325h-50.9103c-32.625,0-46.9665,14.7463-46.9665,34.1687s12.5477,32.0114,38.3627,32.0114c38.7189,0,59.5141-21.2234,59.5141-57.5476ZM1321.1815,449.998c-29.7571,0-35.4947-21.6365-36.9269-32.0611h-2.1518c-12.9075,25.896-40.5145,35.2482-63.8179,35.2482-46.9556,0-77.0815-27.6952-77.0815-66.54,0-42.8049,27.9686-70.8635,87.8372-70.8635h53.0622v-3.9547c0-28.0586-16.8549-44.8991-44.8164-45.3202-9.937.0162-19.6779,2.7762-28.154,7.9795-8.4778,5.2015-15.3634,12.6448-19.9028,21.5131l-36.3079-20.9985c14.6492-26.6696,42.4631-44.811,84.3719-44.811,55.9373,0,87.8372,31.6498,87.8372,81.6461v91.5819c0,2.1375.8474,4.1886,2.3552,5.7017,1.5059,1.5113,3.5516,2.3606,5.6819,2.3606h17.0601v38.5179h-29.0464Z"/>
    <path class="b" d="M966.0994,292.5995v157.3991h-36.2163l-4.2875-46.6203h-2.1644c-20.7826,32.7275-54.4871,49.9927-93.9292,49.9927-78.5155,0-143.0476-62.2201-143.0476-154.2999s64.5321-154.3016,143.0476-154.3016c63.512,0,105.4028,38.1342,127.5546,80.1204l-36.8099,21.362c-20.6801-35.5757-52.0168-58.6775-90.7447-58.6775-55.9373,0-98.2366,42.8049-98.2366,111.4967,0,68.3428,42.2993,111.4967,98.2366,111.4967,51.2629,0,91.7864-40.286,91.7864-79.4853v-2.1518h-79.1092l-20.8438-36.3314h144.764Z"/>
  </g>
  <g>
    <path class="c" d="M353.7945,99.2365l-200.7635,53.7944-53.7945,200.7635,146.9691,146.9691,200.7635-53.7944,53.7945-200.7635-146.969-146.9691ZM386.6024,449.9997h-173.2048l-86.6023-149.9997,86.6023-149.9997h173.2048l86.6023,149.9997-86.6023,149.9997Z"/>
    <polygon class="c" points="400.5128 199.4872 263.2098 162.697 162.697 263.2098 199.4873 400.5128 336.7903 437.3029 437.303 336.7902 400.5128 199.4872"/>
  </g>
</svg>