<svg xmlns="http://www.w3.org/2000/svg" fill="none" viewBox="0 0 400 89">
  <path fill="#1B1B18" d="M44.3 84.908a3.692 3.692 0 0 1-3.692 3.691H11.075C4.958 88.6 0 83.641 0 77.524V47.992A3.692 3.692 0 0 1 3.692 44.3H44.3v40.608Z"/>
  <path fill="#1B1B18" d="M59.066 29.533V44.3H47.991A3.692 3.692 0 0 0 44.3 47.99v11.075H29.533V44.3h11.075a3.692 3.692 0 0 0 3.692-3.692V29.533h14.766Z"/>
  <path fill="#1B1B18" d="M88.6 40.608a3.692 3.692 0 0 1-3.692 3.692H44.3V3.692A3.692 3.692 0 0 1 47.99 0h29.534c6.116 0 11.074 4.958 11.074 11.075v29.533Z"/>
  <path fill="#1B1B18" fill-rule="evenodd" d="M252.708 13.03h7.93v49.51h-7.93v-5.51c-3.172 4.017-7.378 6.026-12.619 6.026-3.332 0-6.355-.815-9.067-2.445-2.712-1.652-4.838-3.913-6.378-6.782-1.517-2.87-2.276-6.072-2.276-9.607 0-3.534.759-6.736 2.276-9.605 1.54-2.87 3.666-5.119 6.378-6.749 2.712-1.652 5.735-2.479 9.067-2.479 5.264 0 9.47 1.997 12.619 5.991V13.03Zm-11.067 42.382c3.172 0 5.804-1.067 7.895-3.202 2.115-2.157 3.172-4.82 3.172-7.988 0-3.19-1.057-5.853-3.172-7.987-2.091-2.158-4.723-3.237-7.895-3.237-3.195 0-5.861 1.08-7.999 3.237-2.114 2.134-3.172 4.797-3.172 7.987 0 3.168 1.058 5.83 3.172 7.988 2.138 2.135 4.804 3.202 7.999 3.202Zm-67.164-8.022c.138-1.01.207-2.043.207-3.099 0-5.417-1.805-9.915-5.413-13.496-3.586-3.604-8.079-5.406-13.481-5.406-3.54 0-6.769.815-9.688 2.445-2.896 1.63-5.171 3.879-6.826 6.748-1.655 2.846-2.483 6.014-2.483 9.503 0 5.394 1.885 9.904 5.655 13.53 3.792 3.627 8.538 5.44 14.239 5.44 3.332 0 6.424-.665 9.274-1.996 2.873-1.331 5.24-3.168 7.102-5.509l-5.344-4.58c-1.08 1.424-2.597 2.606-4.551 3.547-1.93.941-4.022 1.412-6.275 1.412-2.919 0-5.424-.77-7.516-2.307-2.068-1.56-3.424-3.638-4.068-6.232h29.168Zm-25.444-12.567c1.907-1.538 4.137-2.307 6.688-2.307 2.574 0 4.815.77 6.723 2.307 1.931 1.538 3.195 3.57 3.793 6.094H145.24c.644-2.525 1.908-4.556 3.793-6.094Zm59.44-8.764h7.929V62.54h-7.929v-5.51c-3.172 4.016-7.379 6.025-12.619 6.025-3.333 0-6.355-.815-9.068-2.445-2.712-1.652-4.838-3.913-6.378-6.782-1.517-2.87-2.275-6.072-2.275-9.607 0-3.534.758-6.736 2.275-9.605 1.54-2.87 3.666-5.119 6.378-6.749 2.713-1.652 5.735-2.479 9.068-2.479 5.263 0 9.47 1.997 12.619 5.991V26.06Zm-11.068 29.353c3.172 0 5.804-1.067 7.896-3.202 2.114-2.157 3.172-4.82 3.172-7.988 0-3.19-1.058-5.853-3.172-7.987-2.092-2.158-4.724-3.237-7.896-3.237-3.195 0-5.861 1.08-7.998 3.237-2.115 2.134-3.172 4.797-3.172 7.987 0 3.168 1.057 5.83 3.172 7.988 2.137 2.135 4.803 3.202 7.998 3.202Zm97.42-29.353h8.826l-18.637 42.987-2.842 6.524h-9.188c1.276-2.6 3.634-7.42 4.756-9.794l1.93-3.994-15.258-35.723h9.068l10.638 26.392 10.707-26.392Zm23.771 36.997c-5.792 0-10.779-1.837-14.963-5.51l4.103-5.577c2.965 2.823 6.539 4.235 10.723 4.235 2.091 0 3.804-.344 5.137-1.033 1.333-.711 1.999-1.687 1.999-2.926 0-.551-.149-1.045-.448-1.48a3.942 3.942 0 0 0-1.034-1.103c-.391-.298-.977-.585-1.758-.86a29.143 29.143 0 0 0-2.069-.654 71.27 71.27 0 0 0-2.448-.62l-2.586-.62a46.487 46.487 0 0 1-2.517-.792c-1.011-.344-1.85-.688-2.516-1.033a16.288 16.288 0 0 1-2.104-1.377c-.758-.574-1.356-1.194-1.792-1.86-.437-.665-.805-1.457-1.104-2.375-.298-.918-.448-1.928-.448-3.03 0-2.387.667-4.43 2-6.128 1.333-1.699 3.057-2.938 5.171-3.719 2.115-.803 4.505-1.205 7.172-1.205 5.263 0 9.826 1.596 13.687 4.786l-4.172 5.578c-2.758-2.342-5.884-3.512-9.377-3.512-1.862 0-3.402.31-4.62.93-1.196.62-1.793 1.526-1.793 2.72 0 .459.08.872.241 1.239.161.367.437.7.828.998.413.299.804.551 1.172.758.368.206.908.424 1.62.654.736.207 1.345.379 1.828.517l2.137.481a53.74 53.74 0 0 1 2.551.62c.69.16 1.529.413 2.517.758 1.012.321 1.851.665 2.517 1.033.667.344 1.368.803 2.103 1.377.736.55 1.322 1.159 1.759 1.825.459.642.827 1.423 1.103 2.34.299.919.448 1.917.448 2.996 0 2.41-.678 4.51-2.034 6.3-1.356 1.768-3.161 3.088-5.413 3.96-2.23.873-4.769 1.309-7.62 1.309Zm56.096-18.765c0 1.056-.069 2.09-.207 3.1h-29.167c.643 2.593 1.999 4.67 4.068 6.23 2.092 1.539 4.597 2.308 7.516 2.308 2.252 0 4.344-.47 6.275-1.412 1.953-.941 3.47-2.123 4.551-3.546l5.344 4.579c-1.862 2.341-4.23 4.178-7.103 5.509-2.85 1.331-5.941 1.997-9.274 1.997-5.7 0-10.446-1.814-14.239-5.44-3.769-3.627-5.654-8.137-5.654-13.531 0-3.49.827-6.657 2.482-9.503 1.655-2.869 3.931-5.118 6.827-6.748 2.919-1.63 6.148-2.445 9.688-2.445 5.401 0 9.895 1.802 13.48 5.406 3.609 3.58 5.413 8.08 5.413 13.496ZM355.73 32.516c-2.552 0-4.781.77-6.689 2.307-1.885 1.538-3.149 3.57-3.792 6.094h20.996c-.597-2.525-1.862-4.556-3.792-6.094-1.908-1.538-4.149-2.307-6.723-2.307Zm44.27.704h-10.171v17.2c0 1.652.448 2.904 1.345 3.753.919.826 2.218 1.24 3.895 1.24 1.586 0 3.23-.414 4.931-1.24v7.402c-1.954.987-4.149 1.48-6.585 1.48-3.793 0-6.655-.998-8.585-2.995-1.931-1.997-2.896-4.785-2.896-8.366V33.22h-6.103v-7.161h6.103v-13.03h7.895v13.03H400v7.161Zm-264.694-7.715h-1.356c-4.635 0-8.401 1.97-11.297 5.909v-5.356h-7.995V62.54h7.995V44.727c0-3.383.996-6.06 2.989-8.03 2.016-1.992 4.786-2.989 8.308-2.989h1.356v-8.203Z" clip-rule="evenodd"/>
</svg>