<svg width="240" height="48" viewBox="0 0 240 48" fill="none" xmlns="http://www.w3.org/2000/svg">
<path d="M69.5281 20.124C68.7001 19.248 67.6921 18.552 66.5041 18.072C65.3161 17.58 63.9361 17.34 62.3881 17.34C60.8401 17.34 58.8601 17.784 57.3841 18.66C55.9081 19.548 54.7321 20.748 53.8561 22.272C52.9801 23.796 52.5481 25.536 52.5481 27.492C52.5481 29.448 52.9681 31.092 53.7961 32.64C54.6361 34.188 55.8121 35.424 57.3361 36.348C58.8601 37.272 60.6601 37.728 62.7361 37.728C64.8121 37.728 65.3041 37.536 66.4201 37.14C67.5361 36.744 68.5081 36.192 69.3361 35.472C70.1641 34.752 70.7641 33.924 71.1481 32.964L66.8521 30.924C66.4681 31.596 65.9401 32.112 65.2561 32.496C64.5721 32.88 63.7561 33.072 62.8081 33.072C61.8601 33.072 60.8641 32.844 60.1201 32.376C59.3761 31.908 58.8361 31.26 58.4761 30.432C58.2961 30 58.1641 29.532 58.1041 29.04H71.7841C71.8801 28.776 71.9401 28.464 71.9761 28.092C72.0121 27.72 72.0241 27.348 72.0241 26.964C72.0241 25.608 71.8081 24.348 71.3761 23.196C70.9441 22.044 70.3201 21.024 69.5041 20.136L69.5281 20.124ZM59.9881 22.308C60.6601 21.852 61.4521 21.624 62.3881 21.624C63.3241 21.624 64.1521 21.852 64.8001 22.32C65.4601 22.788 65.9161 23.412 66.1801 24.216C66.2761 24.492 66.3361 24.792 66.3601 25.092H58.2601C58.3201 24.816 58.3921 24.552 58.4881 24.3C58.8241 23.412 59.3281 22.752 59.9881 22.296V22.308Z" fill="#FF5432"/>
<path d="M90.6599 18.696C89.1599 17.796 87.4799 17.34 85.6199 17.34C83.7599 17.34 82.9199 17.604 81.8159 18.144C81.1199 18.48 80.5199 18.9 80.0039 19.404V14.22C80.0039 12.012 78.2159 10.212 75.9959 10.212H74.6279V37.284H79.6319V35.424C80.2439 36.084 80.9879 36.6 81.8639 36.984C82.9919 37.476 84.2279 37.716 85.5719 37.716C87.4799 37.716 89.1839 37.26 90.6839 36.36C92.1839 35.46 93.3719 34.224 94.2479 32.676C95.1239 31.128 95.5559 29.412 95.5559 27.528C95.5559 25.644 95.1119 23.892 94.2359 22.356C93.3479 20.82 92.1599 19.596 90.6599 18.684V18.696ZM89.3759 30.324C88.9439 31.14 88.3559 31.764 87.5879 32.22C86.8199 32.676 85.9439 32.904 84.9359 32.904C83.9279 32.904 83.1239 32.676 82.3799 32.22C81.6239 31.764 81.0479 31.14 80.6279 30.324C80.2079 29.508 80.0039 28.584 80.0039 27.528C80.0039 26.472 80.2079 25.548 80.6279 24.732C81.0479 23.916 81.6239 23.292 82.3799 22.836C83.1359 22.38 83.9879 22.152 84.9359 22.152C85.8839 22.152 86.8199 22.38 87.5879 22.848C88.3559 23.316 88.9439 23.94 89.3759 24.744C89.8079 25.548 90.0239 26.472 90.0239 27.516C90.0239 28.56 89.8079 29.496 89.3759 30.312V30.324Z" fill="#FF5432"/>
<path d="M105.072 22.848C105.804 22.392 106.632 22.164 107.556 22.164C108.48 22.164 109.524 22.452 110.328 23.028C111.132 23.604 111.696 24.372 112.032 25.356L116.688 23.352C116.304 22.14 115.68 21.084 114.792 20.184C113.904 19.284 112.848 18.588 111.612 18.096C110.376 17.592 109.02 17.34 107.568 17.34C106.116 17.34 103.848 17.784 102.276 18.66C100.704 19.548 99.4559 20.748 98.5559 22.296C97.6439 23.832 97.2 25.572 97.2 27.504C97.2 29.436 97.656 31.176 98.58 32.724C99.492 34.272 100.74 35.496 102.3 36.396C103.86 37.296 105.624 37.74 107.58 37.74C109.536 37.74 110.412 37.488 111.66 36.972C112.896 36.456 113.964 35.748 114.84 34.848C115.716 33.936 116.34 32.916 116.7 31.776L112.044 29.736C111.708 30.72 111.144 31.488 110.364 32.064C109.572 32.64 108.648 32.928 107.568 32.928C106.488 32.928 105.804 32.7 105.084 32.244C104.352 31.788 103.788 31.164 103.368 30.348C102.948 29.532 102.744 28.608 102.744 27.552C102.744 26.496 102.948 25.572 103.368 24.756C103.788 23.94 104.352 23.316 105.084 22.86L105.072 22.848Z" fill="#FF5432"/>
<path d="M125.772 18.432C124.968 18.912 124.344 19.74 123.912 20.916C123.516 19.116 121.92 17.76 120 17.76H118.992V37.296H124.356V26.784C124.356 25.332 124.764 24.204 125.568 23.4C126.384 22.596 127.44 22.2 128.748 22.2H130.428V17.544H129.288C127.932 17.544 126.756 17.832 125.76 18.42L125.772 18.432Z" fill="#FF5432"/>
<path d="M144.84 29.172C144.84 29.916 144.696 30.564 144.396 31.116C144.096 31.68 143.676 32.112 143.148 32.424C142.608 32.736 141.984 32.892 141.276 32.892C140.568 32.892 139.968 32.736 139.416 32.424C138.864 32.112 138.444 31.68 138.144 31.116C137.844 30.552 137.7 29.904 137.7 29.172V17.76H132.336V29.604C132.336 31.224 132.624 32.64 133.2 33.864C133.776 35.076 134.616 36.024 135.72 36.708C136.824 37.392 138.168 37.728 139.74 37.728C141.312 37.728 142.284 37.452 143.304 36.888C144.132 36.432 144.768 35.784 145.212 34.92V37.296H150.216V17.76H144.852V29.172H144.84Z" fill="#FF5432"/>
<path d="M179.88 18.264C178.8 17.64 177.552 17.328 176.148 17.328C174.744 17.328 173.16 17.712 171.96 18.468C171.252 18.924 170.628 19.536 170.112 20.28C169.704 19.608 169.152 19.032 168.432 18.552C167.208 17.724 165.78 17.316 164.16 17.316C162.54 17.316 161.316 17.676 160.224 18.384C159.444 18.9 158.868 19.608 158.496 20.52C157.98 18.912 156.468 17.736 154.68 17.736H153.672V37.272H159.036V25.86C159.036 25.092 159.168 24.444 159.444 23.892C159.72 23.34 160.116 22.92 160.62 22.608C161.136 22.296 161.736 22.14 162.432 22.14C163.128 22.14 163.752 22.296 164.256 22.608C164.76 22.92 165.144 23.352 165.42 23.892C165.696 24.444 165.828 25.092 165.828 25.86V37.272H171.192V25.86C171.192 25.092 171.324 24.444 171.6 23.892C171.876 23.34 172.272 22.92 172.776 22.608C173.292 22.296 173.892 22.14 174.588 22.14C175.284 22.14 175.908 22.296 176.412 22.608C176.916 22.92 177.3 23.352 177.576 23.892C177.852 24.444 177.984 25.092 177.984 25.86V37.272H183.348V24.72C183.348 23.244 183.036 21.948 182.412 20.844C181.788 19.74 180.936 18.876 179.856 18.252L179.88 18.264Z" fill="#FF5432"/>
<path d="M202.644 18.696C201.144 17.796 199.464 17.34 197.604 17.34C195.744 17.34 194.904 17.604 193.8 18.144C193.104 18.48 192.504 18.9 191.988 19.404V14.22C191.988 12.012 190.2 10.212 187.98 10.212H186.612V37.284H191.616V35.424C192.228 36.084 192.972 36.6 193.848 36.984C194.976 37.476 196.212 37.716 197.556 37.716C199.464 37.716 201.168 37.26 202.668 36.36C204.168 35.46 205.356 34.224 206.232 32.676C207.108 31.128 207.54 29.412 207.54 27.528C207.54 25.644 207.096 23.892 206.22 22.356C205.332 20.82 204.144 19.596 202.644 18.684V18.696ZM201.36 30.324C200.928 31.14 200.34 31.764 199.572 32.22C198.804 32.676 197.928 32.904 196.92 32.904C195.912 32.904 195.108 32.676 194.364 32.22C193.608 31.764 193.032 31.14 192.612 30.324C192.192 29.508 191.988 28.584 191.988 27.528C191.988 26.472 192.192 25.548 192.612 24.732C193.032 23.916 193.608 23.292 194.364 22.836C195.12 22.38 195.972 22.152 196.92 22.152C197.868 22.152 198.804 22.38 199.572 22.848C200.34 23.316 200.928 23.94 201.36 24.744C201.792 25.548 202.008 26.472 202.008 27.516C202.008 28.56 201.792 29.496 201.36 30.312V30.324Z" fill="#FF5432"/>
<path d="M219.96 25.92L216.852 24.984C216.372 24.84 215.976 24.684 215.652 24.516C215.328 24.348 215.1 24.156 214.956 23.94C214.812 23.724 214.74 23.484 214.74 23.22C214.74 22.716 214.932 22.32 215.328 22.044C215.724 21.756 216.264 21.612 216.96 21.612C217.656 21.612 218.772 21.852 219.516 22.344C220.272 22.836 220.788 23.484 221.076 24.288L225.048 22.428C224.448 20.808 223.428 19.548 221.988 18.66C220.548 17.76 218.868 17.316 216.96 17.316C215.052 17.316 214.212 17.568 213.096 18.084C211.98 18.6 211.104 19.308 210.48 20.208C209.856 21.12 209.544 22.176 209.544 23.388C209.544 24.6 209.976 25.968 210.828 26.988C211.692 27.996 212.916 28.74 214.512 29.184L217.836 30.12C218.268 30.24 218.628 30.384 218.904 30.552C219.192 30.72 219.408 30.9 219.552 31.104C219.696 31.308 219.768 31.548 219.768 31.836C219.768 32.388 219.564 32.82 219.156 33.12C218.748 33.432 218.172 33.588 217.404 33.588C216.636 33.588 215.4 33.288 214.548 32.688C213.684 32.088 213.012 31.272 212.508 30.216L208.572 32.076C209.148 33.792 210.228 35.16 211.812 36.168C213.396 37.176 215.268 37.692 217.404 37.692C219.54 37.692 220.248 37.44 221.376 36.924C222.492 36.408 223.368 35.7 224.004 34.8C224.64 33.888 224.952 32.832 224.952 31.62C224.952 30.408 224.52 29.028 223.668 28.056C222.804 27.096 221.568 26.364 219.948 25.896L219.96 25.92Z" fill="#FF5432"/>
<path d="M27.1799 21.612C24.5759 19.152 22.3799 17.088 21.4199 13.92C20.7479 11.7 18.6599 10.212 16.3439 10.212H15.0359C15.0359 18.252 19.3439 22.308 23.1479 25.896C26.6519 29.196 29.4119 31.8 29.4119 37.296H35.2919C35.2919 29.256 30.9839 25.2 27.1799 21.612Z" fill="#FF5432"/>
<path d="M45.8159 10.224H43.9319V23.796C43.1879 23.04 42.4319 22.32 41.6879 21.624C39.0839 19.164 36.8879 17.1 35.9279 13.932C35.2559 11.712 33.1679 10.224 30.8519 10.224H29.5439C29.5439 18.264 33.8519 22.32 37.6559 25.908C41.1599 29.208 43.9199 31.812 43.9199 37.308H49.7999C49.7999 33.18 48.6599 30.108 47.0399 27.6H49.8119V14.232C49.8119 12.024 48.0239 10.224 45.8039 10.224H45.8159Z" fill="#FF5432"/>
</svg>
